<svg
    version="1.1"
    width="2110"
    height="1910"
    viewBox="-0.05 -0.05 21.1 19.1"
    preserveAspectRatio="xMinYMin meet"
    xmlns="http://www.w3.org/2000/svg">

    <defs>
        <pattern
            id="tetromino-grid"
            width="1"
            height="1"
            patternUnits="userSpaceOnUse">

            <rect
                width="1"
                height="1"
                fill="none"
                stroke="#ccc"
                stroke-width=".1" />

        </pattern>
    </defs>

    <rect
        x="-0.05"
        y="-0.05"
        width="100%"
        height="100%"
        fill="url(#tetromino-grid)" />

    <polygon
        points="1,1 5,1 5,2 1,2"
        fill="rgb(240, 228, 66)"
        stroke="black"
        stroke-width=".1" />

    <polygon
        points="6,1 8,1 8,3 6,3"
        fill="rgb(204, 121, 167)"
        stroke="black"
        stroke-width=".1" />

    <polygon
        points="9,1 12,1 12,2 11,2 11,3 10,3 10,2 9,2"
        fill="rgb(86, 180, 233)"
        stroke="black"
        stroke-width=".1" />

    <polygon
        points="13,1 14,1 14,2 16,2 16,3 13,3"
        fill="rgb(213, 94, 0)"
        stroke="black"
        stroke-width=".1" />

    <polygon
        points="17,1 19,1 19,2 20,2 20,3 18,3 18,2 17,2"
        fill="rgb(0, 158, 115)"
        stroke="black"
        stroke-width=".1" />

    <polygon
        points="1,3 2,3 2,5 4,5 4,7 5,7 5,6 3,6 3,4 1,4"
        fill="rgb(0, 114, 178)"
        stroke="black"
        stroke-width=".1" />

    <polygon
        points="6,4 7,4 7,6 10,6 10,5 9,5 9,7 8,7 8,5 6,5"
        fill="rgb(240, 228, 66)"
        stroke="black"
        stroke-width=".1" />

    <polygon
        points="11,6 14,6 14,4 15,4 15,5 13,5 13,7 11,7"
        fill="rgb(204, 121, 167)"
        stroke="black"
        stroke-width=".1" />

    <polygon
        points="16,6 19,6 19,4 20,4 20,5 17,5 17,7 16,7"
        fill="rgb(86, 180, 233)"
        stroke="black"
        stroke-width=".1" />

    <polygon
        points="1,8 3,8 3,10 4,10 4,8 5,8 5,9 1,9"
        fill="rgb(213, 94, 0)"
        stroke="black"
        stroke-width=".1" />

    <polygon
        points="6,8 7,8 7,10 8,10 8,8 9,8 9,10 10,10 10,9 6,9"
        fill="rgb(0, 158, 115)"
        stroke="black"
        stroke-width=".1" />

    <polygon
        points="11,8 12,8 12,10 14,10 14,8 15,8 15,9 11,9"
        fill="rgb(0, 114, 178)"
        stroke="black"
        stroke-width=".1" />

    <polygon
        points="16,8 18,8 18,10 20,10 20,9 16,9"
        fill="rgb(240, 228, 66)"
        stroke="black"
        stroke-width=".1" />

    <polygon
        points="1,11 2,11 2,13 3,13 3,14 4,14 4,12 1,12"
        fill="rgb(204, 121, 167)"
        stroke="black"
        stroke-width=".1" />

    <polygon
        points="6,11 7,11 7,13 8,13 8,12 5,12 5,13 7,13 7,14 6,14"
        fill="rgb(86, 180, 233)"
        stroke="black"
        stroke-width=".1" />

    <polygon
        points="9,11 10,11 10,14 11,14 11,11 12,11 12,12 9,12"
        fill="rgb(213, 94, 0)"
        stroke="black"
        stroke-width=".1" />

    <polygon
        points="13,11 14,11 14,14 15,14 15,13 16,13 16,12 13,12"
        fill="rgb(0, 158, 115)"
        stroke="black"
        stroke-width=".1" />

    <polygon
        points="17,11 19,11 19,14 20,14 20,12 17,12"
        fill="rgb(0, 114, 178)"
        stroke="black"
        stroke-width=".1" />

    <polygon
        points="1,15 2,15 2,18 3,18 3,16 4,16 4,17 1,17"
        fill="rgb(240, 228, 66)"
        stroke="black"
        stroke-width=".1" />

    <polygon
        points="5,15 6,15 6,18 5,18 5,17 7,17 7,15 8,15 8,16 5,16"
        fill="rgb(204, 121, 167)"
        stroke="black"
        stroke-width=".1" />

    <polygon
        points="9,16 10,16 10,18 12,18 12,16 11,16 11,17 9,17"
        fill="rgb(86, 180, 233)"
        stroke="black"
        stroke-width=".1" />

    <polygon
        points="13,16 14,16 14,18 17,18 17,17 13,17"
        fill="rgb(213, 94, 0)"
        stroke="black"
        stroke-width=".1" />

</svg>
